<?xml version="1.0" standalone="no"?><!DOCTYPE svg PUBLIC "-//W3C//DTD SVG 1.1//EN" "http://www.w3.org/Graphics/SVG/1.1/DTD/svg11.dtd"><svg t="1567080436474" class="icon" viewBox="0 0 1024 1024" version="1.1" xmlns="http://www.w3.org/2000/svg" p-id="7168" width="128" height="128" xmlns:xlink="http://www.w3.org/1999/xlink"><defs><style type="text/css"></style></defs><path d="M1012.6 676.3L942.7 626c6.1-28.2 9.3-57.5 9.3-87.6 0-228.5-185.3-413.8-413.8-413.8-78.6 0-152.1 21.9-214.6 60l-59.5-42.9c-10.7-7.7-25.6-5.2-33.3 5.4-7.7 10.7-5.2 25.6 5.4 33.3l45.9 33.1c-21.6 17-41.4 36.2-59.1 57.1l-75.6-54.4c-17.2-12.4-41.5-8.5-53.9 8.8-12.4 17.2-8.5 41.5 8.8 53.9l76.3 55c-10.8 18.9-20.1 38.6-27.8 59.2l-72.5-52.2c-22.1-15.9-53.1-10.8-69 11.2-15.9 22.1-10.8 53.1 11.2 69l106 76.4c-1.3 13.5-2 27.2-2 41.1 0 228.5 185.3 413.8 413.8 413.8 118.2 0 224.7-49.5 300.1-128.9l64.9 46.7c22.1 15.9 53.1 10.8 69-11.2 15.9-22.1 10.8-53.1-11.2-69l-63.6-45.8c11.3-19.6 20.9-40.3 28.9-61.7l54 38.9c12.3 8.9 29.6 6.1 38.5-6.3 8.8-12.6 6-29.9-6.3-38.8z" fill="#DAEBEF" p-id="7169"></path><path d="M50.7 184.6m-31.6 0a31.6 31.6 0 1 0 63.2 0 31.6 31.6 0 1 0-63.2 0Z" fill="#DAEBEF" p-id="7170"></path><path d="M904.4 177.2m-21.9 0a21.9 21.9 0 1 0 43.8 0 21.9 21.9 0 1 0-43.8 0Z" fill="#DAEBEF" p-id="7171"></path><path d="M837.3 137c1.2 0.1 2.3 0.2 3.4 0.2 15.9 0 29.6-12 31.4-28.2 1.9-17.4-10.7-32.9-28-34.8-1.2-0.1-2.3-0.2-3.4-0.2-15.9 0-29.6 12-31.4 28.2-1.9 17.3 10.6 32.9 28 34.8z m-19.2-33.9a22.57 22.57 0 0 1 22.5-20.3c0.8 0 1.7 0 2.5 0.1 6 0.7 11.4 3.6 15.2 8.3 3.8 4.7 5.5 10.6 4.9 16.7a22.57 22.57 0 0 1-22.5 20.3c-0.8 0-1.7 0-2.5-0.1-6-0.7-11.4-3.6-15.2-8.3-3.8-4.7-5.6-10.7-4.9-16.7z" fill="#DAEBEF" p-id="7172"></path><path d="M214.7 428.9c-0.5 11.9 5.4 23.1 15.4 29.4 10 6.4 22.7 6.9 33.2 1.4 10.5-5.5 17.3-16.2 17.8-28 0.8-18.3-13.4-33.8-31.8-34.6-18.3-0.8-33.8 13.4-34.6 31.8z" fill="#A6D2DD" p-id="7173"></path><path d="M237.2 429.4c-0.3 6.6 4.8 12.1 11.4 12.4 6.6 0.3 12.1-4.8 12.4-11.4 0.3-6.6-4.8-12.1-11.4-12.4-6.6-0.3-12.2 4.8-12.4 11.4z m0 0" fill="#FFFFFF" p-id="7174"></path><path d="M331.613 465.15l-64.933-16.097 5.221-21.062 64.933 16.096zM816.4 518.2c-0.7 16 11.7 29.5 27.7 30.2 16 0.7 29.5-11.7 30.2-27.7 0.7-16-11.7-29.5-27.7-30.2-16-0.8-29.5 11.6-30.2 27.7z" fill="#A6D2DD" p-id="7175"></path><path d="M835.8 518.7c-0.2 5.8 4.3 10.7 10.1 11 5.8 0.2 10.7-4.3 11-10.1 0.2-5.8-4.3-10.7-10.1-11-5.8-0.2-10.7 4.3-11 10.1z m0 0" fill="#FFFFFF" p-id="7176"></path><path d="M823.137 530.874l-48.586-1.16 0.518-21.694 48.586 1.16z" fill="#A6D2DD" p-id="7177"></path><path d="M431.1 559.3c15.9 33.4 221.3 67.9 261.5 43.9 37.7-22.5 34.7-116.7 9.3-140.5-25-23.3-182.2-53.2-226.4-32.8-23 10.5-62.5 91.7-44.4 129.4z" fill="#FFFFFF" p-id="7178"></path><path d="M780.4 510.5c0-1.9-0.1-3.7-0.3-5.6-1.6-17.5-4.3-27.6-7.4-33.3-6.7-12.2-38.4-17.1-46.4-9.5-2.7 2.7-8.5 2.7-3.9 13.6 3 7.1 1.7 32.4 2.5 57 1.7 47.1-0.1 84.5 10.3 99.9 5.5 8.2 24.6-6.2 28.8-11.9 5.7-7.7 16.8-66.5 16.7-90.6l-0.3-19.6z m-47.3-30.1c0.3-0.9 0.3-1.2 0.5-1.6 0.7-0.7 1.4-1.1 2.6-1.5 3.1-1 5.9-0.9 9.4 0.2 4.6 1.1 7.2 1.9 9.3 6.7 0.6 1.7 1.8 7.1 2.5 12.7 1.8 11.8 2.3 28.2 2.3 44.1-0.1 23.4-8.4 60.3-11.9 64.8-1.2 1.8-3.4 3.4-5.6 4.4-1.4 0.9-2.6 0.6-3.3 0.3-0.2 0-1.1-0.5-1.1-0.7-11.2-12.9-8.9-87.2-8.2-87.4 4.3-1.5 0-0.7 0-0.7-1-19.4 2.5-35.4 3.5-41.3z m0 0" fill="#A6D2DD" p-id="7179"></path><path d="M736.3 477.5c3.1-1 5-1 8.7-0.1 4.6 1.1 8.3 2 10 7 0.8 2.8 1.9 9.2 2.9 14.6 1.8 11.8 2.1 28.6 1.8 44.6-0.2 21.3-8.4 59.8-12.8 63.8-1.9 1.6-3.1 2.4-5.3 3.8-1.4 0.9-3.7-0.9-3.7-0.9-11.2-12.9-7-65.4-7.9-83.2 0-0.9-0.2-1.6-0.1-2.3v-0.9c-1-19.7 2.2-36.2 3.2-41.8 0.3-0.9 0.6-2.3 0.8-2.5 0.5-1.4 1.4-1.9 2.4-2.1z m0 0" fill="#FFFFFF" p-id="7180"></path><path d="M704.2 416.5c-63-38.7-186.9-57.6-263-45.6-9 1.5-29.8 6.5-42.4 23.5-25.1 33.8-78 187.7-61.8 225.1 18.5 42.9 124.1 58.4 124.1 58.4 5.1 1.2-6.5 20.6-18.6 29.9-16.9 13.1-28.5 21.5-25.2 26.1 6.9 9.2 41 9.5 67.2 4.3 34-6.7 82.7-40.9 82.7-40.9 17.8 0.8 123.3 18.1 153.8-17.8 37.6-44.4 48.2-223-16.8-263z" fill="#A6D2DD" p-id="7181"></path><path d="M693 602.8c-40.1 24-245.6-10.5-261.5-43.9-18-38 21.7-118.9 44.4-129.4 44.2-20.4 201.4 9.5 226.4 32.8 25.4 23.8 28.4 118-9.3 140.5z" fill="#FFFFFF" p-id="7182"></path><path d="M322.6 467.4c-9.7 30.9-15.4 81-10.5 92.2 3.6 8.3 19.9 26.8 32 23.4 24.6-6.7 45.4-32.5 61.7-90.1 8.5-30.1 11.9-59.2 12.7-67.1 1.8-14.9 1-18.7-2.1-22.6-15.6-18.5-54.7-17.1-66.8-4-5.9 6.3-14.2 25.8-22 49.2l-5 19z m65.7 7l-0.3 0.7v0.2c-0.3 0.9-0.5 1.8-0.8 3-6.6 22-24.1 65.7-41.7 78.3-0.9-0.1-2.1-0.8-3.7-2.3-2.2-2.2-4.7-5.3-6.4-8-4.4-6.5-1-31.6 5.3-58.1 4.8-19.7 11.1-40 16.8-54.3 2.6-6.4 5.6-11.5 7.7-14.9 3.5-5.7 9.7-6.8 15.8-7.1 4.7 0 9.6 0.4 13 2.7 1.1 0.7 2 1.5 2.7 2.7 0.2 0.5 0.4 2.4 0.3 3.5-0.7 8.1-1.6 29.6-8.7 53.6z m0 0" fill="#A6D2DD" p-id="7183"></path><path d="M393.9 415.4c-3.4-2.3-8.3-2.7-13-2.7-6.1 0.2-12.5 1.3-15.8 7.1-2 3.2-4.8 8.2-7.7 14.9-5.7 14-12 34.4-16.8 54.3-6.3 26.4-9.4 51.4-5 57.9 1.8 2.6 4.2 5.7 6.5 7.9 1.6 1.5 2.2 1.8 3.3 1.9h0.4c17.6-12.6 34.5-55.7 41.3-77.6 0.3-1.2 0.6-2.1 0.8-3v-0.2l0.3-0.7c7.1-24 8.3-45.5 8.6-52.8 0-1.2 0.1-3-0.3-3.5-0.3-2-1.5-2.7-2.6-3.5z m0 0" fill="#FFFFFF" p-id="7184"></path><path d="M632.6 529.2c-1.1 12.4 8.1 23.2 20.4 24.3 12.4 1.1 23.2-8.1 24.3-20.4 1.1-12.4-8.1-23.2-20.4-24.3-12.3-1.1-23.2 8.1-24.3 20.4z m0 0M560.3 516.1c-0.7 8 2.9 15.7 9.5 20.3 6.6 4.6 15.1 5.3 22.4 2 7.3-3.4 12.2-10.4 12.9-18.4 1.1-12.4-8.1-23.2-20.4-24.3-12.5-1.1-23.4 8-24.4 20.4z m0 0M487.9 502.9c-1.1 12.4 8.1 23.2 20.4 24.3 12.4 1.1 23.2-8.1 24.3-20.4 1.1-12.4-8.1-23.2-20.4-24.3-12.3-1-23.2 8.1-24.3 20.4z m0 0" fill="#91CED8" p-id="7185"></path></svg>